<?xml version="1.0" standalone="no"?>
<!DOCTYPE svg PUBLIC "-//W3C//DTD SVG 1.1//EN" "http://www.w3.org/Graphics/SVG/1.1/DTD/svg11.dtd" >
<svg xmlns="http://www.w3.org/2000/svg">
<metadata></metadata>
<defs>
<font id="geomancyextra_bold" horiz-adv-x="1640" >
<font-face units-per-em="2048" ascent="1536" descent="-512" />
<missing-glyph horiz-adv-x="901" />
<glyph horiz-adv-x="2048" />
<glyph horiz-adv-x="2048" />
<glyph unicode="&#xd;" horiz-adv-x="2048" />
<glyph unicode=" "  horiz-adv-x="901" />
<glyph unicode="&#x09;" horiz-adv-x="901" />
<glyph unicode="&#xa0;" horiz-adv-x="901" />
<glyph unicode="!" horiz-adv-x="593" d="M0 1796q103 41 219 41q123 0 232 -47l-232 -1350zM8 174q0 85 60 145t145 60t145 -60t60 -145t-60 -145t-145 -60t-145 60t-60 145z" />
<glyph unicode="&#x22;" horiz-adv-x="532" d="M0 2075q5 6 15 16t54.5 37t102.5 49t112.5 28t79.5 1l25 -4v-750zM532 2075q5 6 15.5 16t55 37t102.5 49t112.5 28t79.5 1l25 -4v-750z" />
<glyph unicode="#" horiz-adv-x="1437" d="M0 309v277h250l76 231h-164v277h256l117 356l301 -4l-117 -352h143l117 356h295l-117 -356h137v-277h-227l-74 -231h140v-277h-230l-100 -309h-299l100 309h-143l-101 -309h-301l101 309h-160zM553 586h141l76 231h-141z" />
<glyph unicode="$" horiz-adv-x="718" d="M0 516l117 162q3 -3 7 -7.5t18 -16.5t27.5 -22.5t32.5 -21.5t36 -16.5t35 -4.5t32 11q19 10 7 49.5t-42 84.5t-70.5 110t-77 125.5t-62 131t-25.5 126.5q0 45 18 83.5t44 62t52 40.5t44 24l18 7v170h160v-166q6 -3 17 -8t40.5 -22t54.5 -34t51.5 -42.5t40.5 -49.5 l-118 -139q-3 3 -7.5 8.5t-18.5 20t-28 27t-32.5 25.5t-34.5 19t-32.5 4.5t-27.5 -14.5q-23 -24 -13 -72.5t39 -102t69 -119t76 -123t60.5 -114t22.5 -91.5q-3 -59 -14.5 -100t-33.5 -69t-46.5 -45t-64.5 -36v-146h-160v142q-100 43 -142 74q-45 33 -69 75z" />
<glyph unicode="%" horiz-adv-x="1968" d="M0 1065q0 163 115.5 279t279.5 116q163 0 279.5 -116t116.5 -279q0 -164 -116.5 -279.5t-279.5 -115.5q-164 0 -279.5 115.5t-115.5 279.5zM287 1065q0 -44 32 -76.5t76 -32.5t76.5 32.5t32.5 76.5t-32.5 76.5t-76.5 32.5t-76 -32.5t-32 -76.5zM377 0l749 1444h320 l-750 -1444h-319zM1036 395q0 163 115.5 279.5t278.5 116.5q164 0 279.5 -116.5t115.5 -279.5t-115.5 -279t-279.5 -116q-163 0 -278.5 116t-115.5 279zM1323 395q0 -44 31.5 -76t75.5 -32q45 0 76.5 31.5t31.5 76.5t-31.5 77t-76.5 32q-44 0 -75.5 -32.5t-31.5 -76.5z" />
<glyph unicode="&#x26;" horiz-adv-x="2535" d="M0 0v205h2392v-205h-2392zM0 1239v205h2392v-205h-2392zM49 268l383 897l375 -897h-207l-47 115h-250l-47 -115h-207zM377 555h106l-53 125zM870 268v867l527 -439v469h198v-913l-524 438v-422h-201zM1679 268v897h201q188 0 321.5 -133.5t133.5 -320.5 q0 -124 -61.5 -226t-165.5 -159.5t-228 -57.5h-201zM1882 467q105 2 178.5 71.5t73.5 172.5q0 104 -74 179t-178 75v-498z" />
<glyph unicode="'" horiz-adv-x="0" d="M0 1452v750q10 3 27.5 5.5t74.5 -3t115 -27.5t101 -47.5t57 -39.5l14 -15z" />
<glyph unicode="(" horiz-adv-x="845" d="M0 737q0 176 62.5 369.5t176.5 362.5t255 266l208 -303q-92 -64 -157 -146q-176 -222 -176 -547q0 -104 16.5 -198.5t41 -162.5t60 -129.5t65 -98.5t65 -70.5t50.5 -45t32 -22.5q2 -1 3 -2l-208 -303q-142 98 -255.5 267.5t-176 370t-62.5 392.5z" />
<glyph unicode=")" horiz-adv-x="845" d="M0 10q85 59 145 134q189 233 189 595q0 96 -16.5 184.5t-41 153t-60 123t-65 94.5t-65 69t-51 44.5t-32.5 22.5q-2 1 -3 2l209 303q141 -97 255 -266t176 -362.5t62 -369.5q0 -192 -62.5 -392.5t-175.5 -370t-255 -267.5z" />
<glyph unicode="*" horiz-adv-x="884" d="M0 993v205h190l-159 76l145 145l78 -159v192h205v-192l76 159l145 -145l-160 -76h191v-205h-191l160 -78l-145 -143l-76 158v-191h-205v191l-78 -158l-145 143l159 78h-190z" />
<glyph unicode="+" horiz-adv-x="962" d="M0 573v287h266v266h287v-266h266v-287h-266v-266h-287v266h-266z" />
<glyph unicode="," horiz-adv-x="532" d="M0 340q10 3 27.5 5.5t74.5 -3t115 -27.5t101 -47.5t57 -39.5l14 -15l-389 -623v750z" />
<glyph unicode="-" horiz-adv-x="962" d="M0 512v410h819v-410h-819z" />
<glyph unicode="." horiz-adv-x="552" d="M0 174q0 85 60 145t145 60t145 -60t60 -145t-60 -145t-145 -60t-145 60t-60 145z" />
<glyph unicode="/" horiz-adv-x="1091" d="M0 -614l518 2472q116 10 221 -23q123 -39 209 -111z" />
<glyph unicode="0" horiz-adv-x="1376" d="M0 713q0 216 81.5 394.5t223 281t311.5 102.5t311.5 -102.5t223.5 -281.5t82 -394q0 -160 -48.5 -304t-131 -247.5t-196.5 -164t-241 -60.5q-170 0 -312 103t-223 281t-81 392zM395 713q0 -159 69.5 -267t151.5 -108q80 0 150 108t70 267t-70 268t-150 109 q-82 0 -151.5 -109t-69.5 -268z" />
<glyph unicode="1" horiz-adv-x="552" d="M0 0v1348l410 143v-1491h-410z" />
<glyph unicode="2" horiz-adv-x="1277" d="M0 0l672 809q36 49 34 100.5t-41 91t-96 39.5q-59 0 -99 -40t-40 -99h-410q13 153 86.5 278t195 198t267.5 73q132 0 238 -42t173 -115t102.5 -168t35.5 -203q0 -75 -44.5 -169t-135 -190t-205.5 -153h402v-410h-1135z" />
<glyph unicode="3" horiz-adv-x="997" d="M0 16v451q4 -3 10.5 -9t30 -20.5t50 -25.5t69.5 -20t88 -9q87 0 146 61t59 148q0 99 -74.5 154t-171.5 55h-62l136 303h-279v348h825l-196 -471q122 -76 193 -200t71 -271q0 -152 -78 -281t-211.5 -203.5t-290.5 -74.5q-78 0 -167 17.5t-148 47.5z" />
<glyph unicode="4" horiz-adv-x="1619" d="M0 190l659 1256l574 -2v-875h244v-379h-244v-190h-440v190h-793zM614 569h179v379z" />
<glyph unicode="5" horiz-adv-x="1265" d="M0 330l324 182q35 -70 93.5 -111.5t116 -49.5t109.5 4.5t80 43.5q13 14 20 36t7 47t-11.5 51t-33 48t-59 38t-87.5 22q-108 13 -223 -1.5t-176 -35.5l-60 -20l133 868h840l-16 -385h-477l-21 -109q7 0 18.5 0.5t48 -1.5t72.5 -7.5t84.5 -19t91 -33.5t87 -54t76.5 -77 t55 -106t28 -138q4 -70 -10.5 -143t-54 -147.5t-100 -132t-157.5 -94t-218 -36.5q-86 0 -164.5 20t-135.5 51.5t-105.5 70.5t-79.5 77.5t-53.5 70t-31.5 51.5z" />
<glyph unicode="6" horiz-adv-x="1363" d="M4 565q2 11 5 30q18 107 42 168q31 83 209 429q12 23 37 72q58 114 92 180h469l-203 -383q159 14 289 -47t203.5 -179.5t73.5 -269.5q0 -165 -82 -305t-222.5 -221.5t-304.5 -81.5q-124 0 -241 48.5t-202 129t-131 194t-34 236.5zM444 565q0 -69 49.5 -118.5t118.5 -49.5 t118.5 49.5t49.5 118.5t-49.5 118.5t-118.5 49.5t-118.5 -49.5t-49.5 -118.5z" />
<glyph unicode="7" horiz-adv-x="1415" d="M0 0l535 1004h-478v440h1215l-885 -1651z" />
<glyph unicode="8" horiz-adv-x="1175" d="M2 399q-1 134 74 245.5t203 172.5q-66 54 -105.5 129.5t-40.5 159.5q-2 165 113.5 283t283.5 118q110 2 207.5 -49.5t156 -143t58.5 -198.5q3 -97 -42 -182t-122 -141q107 -64 173 -162t69 -213q1 -128 -65 -237t-181.5 -173t-253.5 -65q-139 -2 -260 58t-194 166.5 t-74 231.5zM424 420q3 -43 35 -72.5t76 -28.5h-17q45 0 81.5 33t35.5 76q0 42 -33 72t-76 28q-44 -1 -73 -32t-29 -76zM457 1085q2 -33 23.5 -54.5t51.5 -20.5q31 1 51.5 25.5t18.5 56.5q-2 34 -23.5 56t-52.5 21q-30 -2 -50 -26.5t-19 -57.5z" />
<glyph unicode="9" horiz-adv-x="1363" d="M0 879q0 165 82 305t222 221.5t304 81.5q124 0 241 -48.5t202 -129t131.5 -194.5t34.5 -236q-2 -10 -5 -28q-18 -108 -41 -168q-31 -81 -206 -421v-1l-1 -1v-1l-1 -1v-1l-1 -1v-1l-1 -1v-1l-1 -1v-1l-1 -1v-1l-1 -1v-1l-1 -1v-1l-1 -1v-1l-1 -1v-1l-1 -1v-1l-1 -1v-1 l-1 -1l-1 -1v-1l-1 -1v-1l-1 -1v-1l-1 -1v-1l-1 -1v-1l-1 -1v-1l-1 -1v-1l-1 -1v-1l-1 -1v-1l-1 -1v-1l-1 -1v-1l-1 -1v-1l-1 -1v-1l-1 -1v-1l-1 -1v-1l-1 -1v-1l-1 -1v-1l-1 -1l-1 -1q-64 -126 -102 -200h-469l203 383q-159 -14 -289 47t-203 179.5t-73 269.5zM440 879 q0 -69 49.5 -118.5t118.5 -49.5t118.5 49.5t49.5 118.5t-49.5 118.5t-118.5 49.5t-118.5 -49.5t-49.5 -118.5z" />
<glyph unicode=":" horiz-adv-x="552" d="M0 174q0 85 60 145t145 60t145 -60t60 -145t-60 -145t-145 -60t-145 60t-60 145zM0 721q0 85 60 145t145 60t145 -60t60 -145t-60 -145t-145 -60t-145 60t-60 145z" />
<glyph unicode=";" horiz-adv-x="552" d="M0 340v-750l389 623q-5 6 -15 16t-54.5 37t-102.5 49t-112.5 28t-79.5 1zM0 721q0 85 60 145t145 60t145 -60t60 -145t-60 -145t-145 -60t-145 60t-60 145z" />
<glyph unicode="&#x3c;" horiz-adv-x="931" d="M0 721l788 571v-465l-280 -110l280 -113v-469z" />
<glyph unicode="=" horiz-adv-x="1064" d="M0 236v409h922v-409h-922zM0 788v410h922v-410h-922z" />
<glyph unicode="&#x3e;" horiz-adv-x="931" d="M0 135v469l281 113l-281 110v465l788 -571z" />
<glyph unicode="?" horiz-adv-x="942" d="M0 1237l8 328q100 42 201 47.5t187 -20.5t161 -78.5t128 -123t83.5 -158.5t30.5 -181q0 -178 -116.5 -325t-287.5 -210v-88h-252l-118 375q80 -15 141 -4t105 36.5t72 62t41 72t13 66.5q0 32 -14 69.5t-44 76.5t-77 62t-112 25.5t-150 -32.5zM74 174q0 85 60 145t145 60 t144.5 -60t59.5 -145t-59.5 -145t-144.5 -60t-145 60t-60 145z" />
<glyph unicode="@" horiz-adv-x="1523" d="M0 0v205h1380v-205h-1380zM0 1239v205h1380v-205h-1380zM49 266l383 897l375 -897h-205l-49 115h-250l-49 -115h-205zM375 553h106l-51 125zM672 975v201h678v-201h-238v-709h-203v709h-237z" />
<glyph unicode="A" horiz-adv-x="1703" d="M0 0l764 1544l797 -1544h-447l-104 227h-459l-107 -227h-444zM680 616h166l-82 191z" />
<glyph unicode="B" horiz-adv-x="1175" d="M0 0v1452h610v-2q159 -6 269 -113t110 -256q0 -83 -37.5 -156.5t-103.5 -125.5q104 -62 164.5 -160.5t60.5 -212.5q0 -122 -69 -220t-186 -152t-259 -54h-559zM408 354q19 -2 36 -2q70 0 126 26q70 32 69 89q0 56 -54.5 86.5t-138.5 30.5q-26 0 -38 -2v-228zM408 897 q77 0 128.5 30t51.5 83t-52.5 86.5t-127.5 33.5v11v-244z" />
<glyph unicode="C" horiz-adv-x="1054" d="M0 756q0 127 35.5 240.5t108.5 207t177 157.5q105 64 251 92q91 17 192 17q62 0 127 -6v-409q-29 2 -56 2q-71 -1 -133 -17q-86 -24 -138.5 -68.5t-81.5 -100t-29 -113.5q0 -61 26 -118t76.5 -106t137.5 -78.5t198 -29.5v-430q-43 -3 -85 -3q-139 -1 -264 35 q-163 46 -283 142.5t-189.5 248t-69.5 337.5z" />
<glyph unicode="D" horiz-adv-x="1431" d="M0 0v1444h410l198 -2q146 0 279.5 -57.5t230 -154t154 -230.5t57.5 -281q0 -146 -57.5 -279.5t-154 -229.5t-230 -153t-279.5 -57h-608zM410 422q51 -6 97 -6q57 0 107 10q88 18 141.5 61t80 101.5t26.5 130.5q0 61 -26 117.5t-78 103.5q-52 46 -142 68q-55 13 -120 13 q-41 0 -86 -5v-594z" />
<glyph unicode="E" horiz-adv-x="1140" d="M0 -2v1446h997v-422h-587v-98h587v-410h-587v-104h587v-410l-587 -2h-410z" />
<glyph unicode="F" horiz-adv-x="1134" d="M0 -2v1446h991v-422h-581v-98h581v-410h-581v-516h-410z" />
<glyph unicode="G" horiz-adv-x="1533" d="M0 721q0 117 35 230.5t101.5 210.5t155.5 171t203.5 116t239.5 42q89 0 175 -19t151.5 -48t127 -68t101.5 -72.5t75 -69t48 -51t19 -24.5l-330 -244h2l-2 3q-104 121 -242 164q-62 19 -125 19q-65 0 -120 -23t-92 -60.5t-63 -85t-38 -96.5t-12 -95q0 -149 105 -259.5 t261 -113.5v443h594v-410h-184v-342q-88 -45 -174.5 -68.5t-135 -27.5t-114.5 -4q-151 0 -291.5 63t-243.5 168.5t-165 250t-62 300.5z" />
<glyph unicode="H" horiz-adv-x="1323" d="M0 -2v1446h410v-518h360v518h410v-1446h-410v518h-360v-518h-410z" />
<glyph unicode="I" horiz-adv-x="552" d="M0 0v1444h410v-1444h-410z" />
<glyph unicode="J" horiz-adv-x="978" d="M0 356h410q1 -5 5 -7t7.5 0t3.5 7v1088h410v-1088q0 -173 -123 -295t-295 -122q-173 0 -295.5 122t-122.5 295z" />
<glyph unicode="K" horiz-adv-x="1478" d="M0 0v1444h410v-529l555 555l260 -260l-414 -415l555 -795h-498l-352 500l-106 -107v-393h-410z" />
<glyph unicode="L" horiz-adv-x="851" d="M0 0v1444h410v-1034h299v-410h-709z" />
<glyph unicode="M" horiz-adv-x="1771" d="M0 0l246 1501l569 -950l547 950l266 -1501h-385l-82 453l-354 -596l-354 596l-103 -453h-350z" />
<glyph unicode="N" horiz-adv-x="1445" d="M0 0v1614l889 -823l4 653h410v-1675l-893 833v-602h-410z" />
<glyph unicode="O" d="M0 709q0 156 61 300.5t163.5 250t245 168.5t298.5 63q157 0 299.5 -63t245.5 -168.5t164 -250t61 -300.5q0 -209 -103 -386t-280.5 -280.5t-386.5 -103.5q-208 0 -385 103.5t-280 280.5t-103 386zM410 709q0 -149 105 -255t253 -106q149 0 254.5 106t105.5 255 q0 150 -106 261t-254 111q-147 0 -252.5 -111t-105.5 -261z" />
<glyph unicode="P" horiz-adv-x="1263" d="M0 0v1444h547q125 0 239.5 -50.5t196 -134t130 -196t48.5 -232.5q0 -125 -47 -238t-133 -196q-59 -58 -126 -95.5t-143 -55t-143.5 -23.5t-158.5 -6v-217h-410zM410 627h137q85 0 145 59.5t60 144.5t-60 145t-145 60h-137v-409z" />
<glyph unicode="Q" d="M0 709q0 156 61 300.5t163.5 250t245 168.5t298.5 63q157 0 299.5 -63t245.5 -168.5t164 -250t61 -300.5q0 -204 -100 -378.5t-267 -277.5l95 -151q-7 -7 -20.5 -19t-64.5 -37.5t-112 -38.5q-61 -12 -111 -13h-16q-37 0 -54 4l-20 5v144q-66 -8 -100 -8 q-208 0 -385 103.5t-280 280.5t-103 386zM410 709q0 -149 105 -255t253 -106q54 0 100 14v177l86 -140q79 48 126.5 130.5t47.5 179.5q0 150 -106 261t-254 111q-147 0 -252.5 -111t-105.5 -261z" />
<glyph unicode="R" horiz-adv-x="1290" d="M0 0v1444h475q137 0 258 -37.5t213.5 -106.5t146.5 -177t54 -240q0 -83 -23 -158.5t-57.5 -127t-76 -92t-77 -61.5t-63.5 -28q33 -37 111 -74q36 -16 80 -27.5t70 -14.5l26 -3l-154 -344q-162 7 -319 102.5t-254 235.5v-291h-410zM410 674q40 -11 76 -11q64 0 116 33 q82 51 82 150q0 58 -42 102t-106 60q-32 8 -65 7q-31 0 -61 -7v-334z" />
<glyph unicode="S" horiz-adv-x="909" d="M0 -4v428h14t34.5 3.5t48.5 10.5t49.5 23t43.5 39q11 15 18 39.5t9.5 63.5t3.5 71t1 91.5t1 96.5q8 288 135.5 436t399.5 148v-436l7 2q-8 6 -48 1q-67 -9 -103 -57q-16 -21 -21 -115.5t-12.5 -238.5t-27.5 -246q-18 -92 -63.5 -160.5t-102 -107t-128 -61.5t-133.5 -29 q-40 -4 -81 -3q-22 0 -45 1z" />
<glyph unicode="T" horiz-adv-x="1089" d="M0 1024v420h946v-420h-262v-1024h-418v1024h-266z" />
<glyph unicode="U" horiz-adv-x="1146" d="M0 440v1004h410v-1004q0 -38 27 -65t65 -27t65 27t27 65v1004h410v-1004q0 -136 -67.5 -251.5t-183 -182.5t-251.5 -67t-251.5 67t-183 182.5t-67.5 251.5z" />
<glyph unicode="V" horiz-adv-x="1374" d="M0 1444h465l149 -500l152 500h465l-617 -1532z" />
<glyph unicode="W" horiz-adv-x="2101" d="M0 1444h485l146 -447l348 809l348 -809l148 447h483l-549 -1561l-430 987l-430 -987z" />
<glyph unicode="X" horiz-adv-x="1361" d="M0 0l344 721l-344 723h459l147 -361l150 361h463l-349 -723l349 -721h-465l-148 356l-145 -356h-461z" />
<glyph unicode="Y" horiz-adv-x="1394" d="M0 1444l451 4l190 -397l162 397l448 -4l-413 -832v-612h-398v612z" />
<glyph unicode="Z" horiz-adv-x="1421" d="M0 1042v402h1225l-539 -1034h592v-410h-1268l539 1042h-549z" />
<glyph unicode="[" horiz-adv-x="698" d="M0 -297v2032h555v-369h-186v-1294h186v-369h-555z" />
<glyph unicode="\" horiz-adv-x="1091" d="M0 1724q86 72 209 111q105 33 221 23l518 -2472z" />
<glyph unicode="]" horiz-adv-x="698" d="M0 72h186v1294h-186v369h555v-2032h-555v369z" />
<glyph unicode="_" horiz-adv-x="1576" d="M0 -20v204h1434v-204h-1434z" />
<glyph unicode="`" horiz-adv-x="638" d="M0 1982q1 4 3 10t12 26t23.5 39.5t39 47t57.5 52.5q49 37 93.5 59.5t64.5 26.5l20 4l326 -660z" />
<glyph unicode="a" horiz-adv-x="1239" d="M0 233v359h127q55 312 176 512q212 345 675 345q57 0 118 -5v-1444h-344v233h-297q-1 -59 0 -105q0 -91 2 -128h-365q-2 62 -2 120.5t2 112.5h-92zM475 592h277v418q-111 -59 -181 -174q-25 -42 -44 -103t-25 -101l-6 -40h-21z" />
<glyph unicode="b" horiz-adv-x="1062" d="M0 0v1444h459q125 0 231 -59t168 -163t62 -229q0 -145 -86 -268q86 -123 86 -268q0 -99 -24 -179t-75.5 -144.5t-143.5 -100t-218 -35.5zM375 344h61q41 0 71 26t30 68q0 41 -30 70t-71 29h-61v-193zM375 897h61q42 0 70 25.5t31 68.5q0 41 -30 70t-71 29h-61v-193z" />
<glyph unicode="c" horiz-adv-x="1585" d="M0 723q0 139 48.5 274t137.5 240q103 123 244.5 188.5t302.5 65.5q89 0 175 -19t151.5 -48t127.5 -67.5t102.5 -72.5t75.5 -69.5t48 -51.5t19 -24l-330 -242l2 -2q-6 9 -19 23t-49.5 45t-76.5 55.5t-101.5 43.5t-124.5 19q-80 0 -144 -34.5t-101.5 -89t-57.5 -115 t-20 -119.5q0 -61 23.5 -125.5t66 -121t111 -92.5t149.5 -36q63 0 120 17.5t92.5 38.5t66.5 49.5t40 40.5l15 20l-2 -2l350 -213q-34 -57 -91.5 -114.5t-141.5 -115t-202 -94t-247 -36.5q-163 0 -308.5 68t-254.5 194q-94 109 -145.5 245.5t-51.5 276.5z" />
<glyph unicode="d" horiz-adv-x="1257" d="M0 0v1444l401 4q211 0 384.5 -98.5t271.5 -266t98 -366.5q0 -148 -57 -280t-155.5 -227.5t-237 -152t-295.5 -57.5h-410zM410 387q150 3 239.5 88t89.5 242q0 149 -90 232.5t-239 86.5v-649z" />
<glyph unicode="e" horiz-adv-x="956" d="M0 0v1444h793v-422h-383v-98h383v-410h-383v-104h383v-410h-793z" />
<glyph unicode="f" horiz-adv-x="935" d="M0 0v1446h793v-424h-383v-98h383v-410h-383v-514h-410z" />
<glyph unicode="g" horiz-adv-x="1599" d="M0 723q0 138 48.5 272.5t137.5 239.5q102 124 243.5 190t303.5 66q89 0 175 -19t151.5 -48t127.5 -67.5t102.5 -72.5t75.5 -69.5t48 -51.5t19 -24l-330 -242v-2q-6 9 -19 23t-49 45t-76.5 55.5t-101 43.5t-123.5 19q-79 0 -143.5 -35t-102 -89.5t-57.5 -115t-20 -118.5 q0 -61 23 -125.5t65.5 -121t111 -92.5t150.5 -36q133 0 237 74h-262v328h721v-328h-217l203 -125q-27 -44 -67 -89t-103.5 -94.5t-137 -87t-172 -62.5t-202.5 -25q-164 0 -309 67t-254 193q-94 110 -145.5 247.5t-51.5 276.5zM1092 512l2 2z" />
<glyph unicode="h" horiz-adv-x="1161" d="M0 0v1444h410v-516h198v516h410v-1444h-410v518h-198v-518h-410z" />
<glyph unicode="i" horiz-adv-x="573" d="M0 0v1444h410v-1444h-410zM143 1651q0 85 60 144.5t145 59.5t145 -59.5t60 -144.5t-60 -145t-145 -60t-145 60t-60 145z" />
<glyph unicode="j" horiz-adv-x="1146" d="M0 440h410q0 -38 27 -65t65 -27t65 27t27 65v1004h410v-1004q0 -136 -67.5 -251.5t-183 -182.5t-251.5 -67t-251.5 67t-183 182.5t-67.5 251.5z" />
<glyph unicode="k" horiz-adv-x="1196" d="M0 0v1444h410v-430l643 465v-506l-338 -244l338 -252v-508h-2l-641 475v-444h-410z" />
<glyph unicode="l" horiz-adv-x="1126" d="M0 0v1444h410v-1036h573v-408h-983z" />
<glyph unicode="m" horiz-adv-x="1671" d="M0 0v1501l772 -848l756 848v-1501h-410v473l-354 -371l-354 371v-473h-410z" />
<glyph unicode="n" horiz-adv-x="1302" d="M0 0v1485l750 -625v584h409v-1495l-749 647v-596h-410z" />
<glyph unicode="o" d="M0 709q0 156 61 300.5t163.5 250t245 168.5t298.5 63q157 0 299.5 -63t245.5 -168.5t164 -250t61 -300.5q0 -209 -103 -386t-280.5 -280.5t-386.5 -103.5q-208 0 -385 103.5t-280 280.5t-103 386zM410 709q0 -149 105 -255t253 -106q149 0 254.5 106t105.5 255 q0 150 -106 261t-254 111q-147 0 -252.5 -111t-105.5 -261z" />
<glyph unicode="p" horiz-adv-x="1083" d="M0 0v1444h410q139 -4 261 -74.5t195.5 -189.5t73.5 -256q0 -104 -43.5 -199.5t-116 -164t-169.5 -109t-201 -41.5v-410h-410zM410 772q51 2 98 42.5t47 115.5q0 61 -47 94t-98 35v-287z" />
<glyph unicode="q" d="M0 707q0 158 65 304t171 250.5t246.5 167t287.5 62.5q205 0 383 -110t281.5 -291t103.5 -383q0 -208 -105 -386.5t-282 -281.5q122 -44 299 -47v-410q-218 4 -406.5 102t-312.5 257q-149 11 -284 75.5t-233 165.5t-156 238t-58 287zM410 707q0 -149 105.5 -254 t254.5 -105t253.5 105t104.5 254q0 151 -105 262.5t-253 111.5t-254 -111.5t-106 -262.5z" />
<glyph unicode="r" horiz-adv-x="1050" d="M0 0v1444h410q211 -6 359.5 -157t148.5 -361q0 -128 -59 -239t-159 -181l248 -506h-399l-160 377l-33 -2v-375h-356zM377 780q53 2 100 38.5t47 109.5q0 41 -26.5 68.5t-57.5 37t-63 10.5v-264z" />
<glyph unicode="s" horiz-adv-x="968" d="M2 1020v12q0 133 66 241q68 113 184 165q74 33 153 32q44 0 89 -10q82 -19 154 -57.5t103 -66.5l31 -29l-229 -258q-20 21 -45.5 36.5t-54.5 20.5t-50 -14q-27 -21 -27 -52q0 -10 3 -20q11 -46 48.5 -94.5t96.5 -98.5q9 -8 40.5 -35t43 -37t40.5 -37t41 -41.5t35.5 -42.5 t34 -48.5t26 -51t22.5 -58.5t12.5 -63t5.5 -71q0 -107 -58.5 -197.5t-153 -141t-201.5 -50.5q-75 0 -139.5 17.5t-115.5 51t-83 61.5t-70 69l232 254q39 -42 91 -70q26 -14 45 -14t31 14q23 23 28 45t-12 49t-41.5 52t-72.5 67q-50 43 -84.5 75.5t-79 83t-72 95t-47 102.5 t-20.5 115z" />
<glyph unicode="t" horiz-adv-x="1273" d="M0 1024v420h1130v-420h-364v-1024h-418v1024h-348z" />
<glyph unicode="u" horiz-adv-x="1146" d="M0 440v1004h410v-1004q0 -38 27 -65t65 -27t65 27t27 65v1004h410v-1004q0 -136 -67.5 -251.5t-183 -182.5t-251.5 -67t-251.5 67t-183 182.5t-67.5 251.5z" />
<glyph unicode="v" horiz-adv-x="1638" d="M0 1444h465l283 -608l282 608h465l-747 -1532z" />
<glyph unicode="w" horiz-adv-x="2236" d="M0 1444h444l379 -752l224 514l231 -514l371 752h444l-752 -1532l-294 532l-295 -532z" />
<glyph unicode="x" horiz-adv-x="1361" d="M0 0l344 721l-344 723h459l147 -361l150 361h463l-349 -723l349 -721h-465l-148 356l-145 -356h-461z" />
<glyph unicode="y" horiz-adv-x="1495" d="M0 1444h451l225 -416l225 416h451l-709 -1444h-461l285 569z" />
<glyph unicode="z" horiz-adv-x="1275" d="M0 0l455 1022h-406v422h1051l-490 -1034h334l230 -410h-1174z" />
<glyph unicode="{" horiz-adv-x="753" d="M0 549h2l-2 328q54 5 95.5 61t60 128.5t18.5 143.5q0 106 27 203.5t79.5 180.5t137.5 140t192 76v-340q-108 -53 -108 -260q0 -136 -67.5 -277.5t-141.5 -219.5q70 -76 135.5 -212.5t65.5 -262.5q0 -176 116 -240v-338q-133 18 -235.5 102t-155.5 208.5t-53 267.5 q0 66 -19 133.5t-58.5 119t-88.5 58.5z" />
<glyph unicode="|" horiz-adv-x="514" d="M0 -297v2032h371v-2032h-371z" />
<glyph unicode="}" horiz-adv-x="753" d="M0 -2q117 65 117 240q0 126 65 262.5t135 212.5q-74 77 -141 219t-67 278q0 207 -109 260v340q107 -19 192 -76t137.5 -140t79.5 -180.5t27 -203.5q0 -71 18.5 -143.5t60 -128.5t95.5 -61l-2 -328h2q-49 -7 -88.5 -58.5t-58.5 -119t-19 -133.5q0 -143 -53 -267.5 t-155.5 -208.5t-235.5 -102v338z" />
<glyph unicode="~" horiz-adv-x="1372" d="M0 627q0 45 12.5 91t42 93.5t72 84.5t109 60t147.5 23q53 0 100 -13t90 -41.5t64.5 -45.5t60.5 -52q53 -50 86 -70t74 -20q40 0 62 29t22 70h287q0 -49 -12 -99.5t-40.5 -102.5t-70 -92t-106 -65.5t-142.5 -25.5q-62 0 -116 14.5t-100.5 43.5t-72.5 50t-65 57 q-46 43 -71 59.5t-50 16.5q-37 0 -66.5 -16.5t-29.5 -48.5h-287z" />
<glyph unicode="&#xa1;" horiz-adv-x="593" d="M0 16l231 1350l220 -1356q-103 -41 -220 -41q-122 0 -231 47zM33 1632q0 85 60 145t145 60t144.5 -60t59.5 -145t-59.5 -145t-144.5 -60t-145 60t-60 145z" />
<glyph unicode="&#xa8;" horiz-adv-x="751" d="M0 1718q0 54 37.5 91.5t91.5 37.5t91.5 -37.5t37.5 -91.5t-37.5 -91.5t-91.5 -37.5t-91.5 37.5t-37.5 91.5zM348 1718q0 54 38.5 91.5t92.5 37.5q53 0 91 -37.5t38 -91.5t-38 -91.5t-91 -37.5q-54 0 -92.5 37.5t-38.5 91.5z" />
<glyph unicode="&#xad;" horiz-adv-x="962" d="M0 512v410h819v-410h-819z" />
<glyph unicode="&#xb4;" horiz-adv-x="638" d="M0 1587l326 660q8 -1 22 -4t60.5 -26t95.5 -60q50 -39 84 -83t42 -68l9 -24z" />
<glyph unicode="&#xb8;" horiz-adv-x="606" d="M0 78q73 209 145 420l54 -19l-54 -155q66 8 110.5 10t108 -1.5t118.5 -25.5t100 -61l-312 -488l97 324q-57 31 -155 29.5t-212 -33.5z" />
<glyph unicode="&#xbf;" horiz-adv-x="942" d="M0 514q0 -93 30.5 -181t83.5 -158.5t128 -123t161 -78.5t187 -20.5t201 47.5l8 328q-80 -33 -149.5 -32.5t-113.5 25t-76 62t-45.5 75.5t-13.5 70q0 31 13.5 66.5t41.5 72.5t72 62.5t105 36.5t141 -4l-119 375h-252v-88q-171 -62 -287 -209.5t-116 -325.5zM315 1391 q0 85 60 144.5t145 59.5t145 -59.5t60 -144.5t-60 -145t-145 -60t-145 60t-60 145z" />
<glyph unicode="&#xc0;" horiz-adv-x="1703" d="M0 0l764 1544l797 -1544h-447l-104 227h-459l-107 -227h-444zM522 1880q1 4 3 10t12 25.5t23.5 39.5t39 47t57.5 52q49 37 94 59.5t65 26.5l20 4l325 -659zM680 616h166l-82 191z" />
<glyph unicode="&#xc1;" horiz-adv-x="1703" d="M0 0l764 1544l797 -1544h-447l-104 227h-459l-107 -227h-444zM522 1587l326 660q8 -1 22 -4t60.5 -26t95.5 -60q50 -39 84 -83t42 -68l9 -24zM680 616h166l-82 191z" />
<glyph unicode="&#xc2;" horiz-adv-x="1703" d="M0 0l764 1544l797 -1544h-447l-104 227h-459l-107 -227h-444zM489 1690q19 23 43 47.5t63 58.5t85 55t88 21q43 0 89.5 -21.5t85 -54.5t63 -58.5t41.5 -47.5l-127 -103q-37 46 -83.5 83.5t-68.5 37.5q-20 0 -66.5 -37.5t-85.5 -83.5zM680 616h166l-82 191z" />
<glyph unicode="&#xc3;" horiz-adv-x="1703" d="M0 0l764 1544l797 -1544h-447l-104 227h-459l-107 -227h-444zM483 1645q0 35 13 70t39 68t73 54t107 21q43 0 82.5 -17t58.5 -31.5t51 -44.5q36 -33 58 -46t49 -13q30 0 45.5 20.5t15.5 49.5h164q0 -37 -12.5 -75.5t-37.5 -75.5t-70.5 -60t-104.5 -23q-48 0 -93.5 19 t-68 36.5t-55.5 47.5t-48 39.5t-34 9.5q-66 0 -68 -52v3h-164zM680 616h166l-82 191z" />
<glyph unicode="&#xc4;" horiz-adv-x="1703" d="M0 0l764 1544l797 -1544h-447l-104 227h-459l-107 -227h-444zM461 1677q0 54 37.5 91.5t91.5 37.5t91.5 -37.5t37.5 -91.5t-37.5 -91.5t-91.5 -37.5t-91.5 37.5t-37.5 91.5zM680 616h166l-82 191zM809 1677q0 54 38.5 91.5t92.5 37.5q53 0 91 -37.5t38 -91.5t-38 -91.5 t-91 -37.5q-54 0 -92.5 37.5t-38.5 91.5z" />
<glyph unicode="&#xc5;" horiz-adv-x="1703" d="M0 0l764 1544l797 -1544h-447l-104 227h-459l-107 -227h-444zM559 1806q0 85 60 145t145 60t145 -60t60 -145t-60 -144.5t-145 -59.5t-145 59.5t-60 144.5zM633 1804q0 -54 38.5 -92.5t92.5 -38.5t92.5 38.5t38.5 92.5t-38.5 92.5t-92.5 38.5t-92.5 -38.5t-38.5 -92.5z M680 616h166l-82 191z" />
<glyph unicode="&#xc6;" horiz-adv-x="1906" d="M0 0l971 1444h792v-422h-383v-98h383v-410h-383v-104h383v-410h-792v18l8 234h-369l-159 -252h-451zM829 616h140l4 203z" />
<glyph unicode="&#xc7;" horiz-adv-x="1083" d="M0 756q0 127 35.5 240.5t108.5 207t177 157.5t250.5 92t319.5 11v-409q-103 9 -189 -14.5t-138.5 -68.5t-81.5 -100.5t-29 -113.5q0 -61 26 -118t76.5 -106t137.5 -78.5t198 -29.5v-430q-186 -14 -349 32.5t-283 142.5t-189.5 247.5t-69.5 337.5zM358 -362 q33 94 56.5 161t32 91t22 63.5t35.5 103.5l53 -18l-53 -156q66 8 110 10t108 -1.5t118.5 -25.5t99.5 -61l-311 -487l96 324q-57 31 -155 29.5t-212 -33.5z" />
<glyph unicode="&#xc8;" horiz-adv-x="1140" d="M0 -2v1446h997v-422h-587v-98h587v-410h-587v-104h587v-410l-587 -2h-410zM162 1880q1 4 3 10t12 25.5t23.5 39.5t39 47t57.5 52q49 37 93.5 59.5t64.5 26.5l20 4l326 -659z" />
<glyph unicode="&#xc9;" horiz-adv-x="1140" d="M0 -2v1446h997v-422h-587v-98h587v-410h-587v-104h587v-410l-587 -2h-410zM250 1587l325 660q8 -1 22 -4t61 -26t96 -60q50 -39 84 -83t42 -68l9 -24z" />
<glyph unicode="&#xca;" horiz-adv-x="1140" d="M0 -2v1446h997v-422h-587v-98h587v-410h-587v-104h587v-410l-587 -2h-410zM223 1690q19 23 43 47.5t63 58.5t85 55t88 21q43 0 89.5 -21.5t84.5 -54.5t62.5 -58.5t41.5 -47.5l-127 -103q-37 46 -83.5 83.5t-67.5 37.5q-20 0 -66.5 -37.5t-85.5 -83.5z" />
<glyph unicode="&#xcb;" horiz-adv-x="1140" d="M0 -2v1446h997v-422h-587v-98h587v-410h-587v-104h587v-410l-587 -2h-410zM190 1677q0 54 37.5 91.5t91.5 37.5t92 -37.5t38 -91.5t-38 -91.5t-92 -37.5t-91.5 37.5t-37.5 91.5zM539 1677q0 54 38.5 91.5t92.5 37.5q53 0 91 -37.5t38 -91.5t-38 -91.5t-91 -37.5 q-54 0 -92.5 37.5t-38.5 91.5z" />
<glyph unicode="&#xcc;" horiz-adv-x="782" d="M0 1880q1 4 3 10t12 25.5t23.5 39.5t39 47t57.5 52q49 37 93.5 59.5t64.5 26.5l20 4l326 -659zM229 0v1444h410v-1444h-410z" />
<glyph unicode="&#xcd;" horiz-adv-x="577" d="M0 0h410v1444h-410v-1444zM0 1587l326 660q8 -1 22 -4t60.5 -26t95.5 -60q50 -39 84 -83t42 -68l9 -24z" />
<glyph unicode="&#xce;" horiz-adv-x="628" d="M0 1690q19 23 43 47.5t63 58.5t85 55t88 21q43 0 89.5 -21.5t84.5 -54.5t62.5 -58.5t41.5 -47.5l-127 -103q-37 46 -83.5 83.5t-67.5 37.5q-20 0 -66.5 -37.5t-85.5 -83.5zM70 0v1444h409v-1444h-409z" />
<glyph unicode="&#xcf;" horiz-adv-x="679" d="M0 1677q0 54 37.5 91.5t91.5 37.5t91.5 -37.5t37.5 -91.5t-37.5 -91.5t-91.5 -37.5t-91.5 37.5t-37.5 91.5zM88 0h410v1444h-410v-1444zM348 1677q0 54 38.5 91.5t92.5 37.5q53 0 91 -37.5t38 -91.5t-38 -91.5t-91 -37.5q-54 0 -92.5 37.5t-38.5 91.5z" />
<glyph unicode="&#xd1;" horiz-adv-x="1445" d="M0 0v1614l889 -823l4 653h410v-1675l-893 833v-602h-410zM283 1645q0 35 12.5 70t38.5 68t73 54t107 21q43 0 83 -17t59 -32t51 -44q37 -33 58 -46t48 -13q30 0 45.5 20.5t15.5 49.5h164q0 -37 -12.5 -75.5t-37.5 -75.5t-70.5 -60t-104.5 -23q-48 0 -93.5 19t-68 36.5 t-55.5 47.5t-48 39.5t-34 9.5q-66 0 -68 -52v3h-163z" />
<glyph unicode="&#xd2;" d="M0 709q0 156 61 300.5t163.5 250t245 168.5t298.5 63q157 0 299.5 -63t245.5 -168.5t164 -250t61 -300.5q0 -209 -103 -386t-280.5 -280.5t-386.5 -103.5q-208 0 -385 103.5t-280 280.5t-103 386zM410 709q0 -149 105 -255t253 -106q149 0 254.5 106t105.5 255 q0 150 -106 261t-254 111q-147 0 -252.5 -111t-105.5 -261zM416 1880q1 4 3 10t12 25.5t23.5 39.5t39 47t57.5 52q49 37 93.5 59.5t64.5 26.5l20 4l326 -659z" />
<glyph unicode="&#xd3;" d="M0 709q0 -209 103 -386t280 -280.5t385 -103.5q209 0 386.5 103.5t280.5 280.5t103 386q0 156 -61 300.5t-164 250t-245.5 168.5t-299.5 63q-156 0 -298.5 -63t-245 -168.5t-163.5 -250t-61 -300.5zM410 709q0 150 105.5 261t252.5 111q148 0 254 -111t106 -261 q0 -149 -105.5 -255t-254.5 -106q-148 0 -253 106t-105 255zM510 1587l326 660q8 -1 22 -4t60.5 -26t95.5 -60q50 -39 84 -83t42 -68l9 -24z" />
<glyph unicode="&#xd4;" d="M0 709q0 156 61 300.5t163.5 250t245 168.5t298.5 63q157 0 299.5 -63t245.5 -168.5t164 -250t61 -300.5q0 -209 -103 -386t-280.5 -280.5t-386.5 -103.5q-208 0 -385 103.5t-280 280.5t-103 386zM410 709q0 -149 105 -255t253 -106q149 0 254.5 106t105.5 255 q0 150 -106 261t-254 111q-147 0 -252.5 -111t-105.5 -261zM489 1690q19 23 43 47.5t63 58.5t85 55t88 21q43 0 89.5 -21.5t85 -54.5t63 -58.5t41.5 -47.5l-127 -103q-37 46 -83.5 83.5t-68.5 37.5q-20 0 -66.5 -37.5t-85.5 -83.5z" />
<glyph unicode="&#xd5;" d="M0 709q0 156 61 300.5t163.5 250t245 168.5t298.5 63q157 0 299.5 -63t245.5 -168.5t164 -250t61 -300.5q0 -209 -103 -386t-280.5 -280.5t-386.5 -103.5q-208 0 -385 103.5t-280 280.5t-103 386zM391 1645q0 35 13 70t39 68t73 54t107 21q43 0 82.5 -17t58.5 -31.5 t51 -44.5q36 -33 58 -46t49 -13q30 0 45.5 20.5t15.5 49.5h164q0 -37 -12.5 -75.5t-37.5 -75.5t-70.5 -60t-104.5 -23q-48 0 -93.5 19t-68 36.5t-55.5 47.5t-48 39.5t-34 9.5q-66 0 -68 -52v3h-164zM410 709q0 -149 105 -255t253 -106q149 0 254.5 106t105.5 255 q0 150 -106 261t-254 111q-147 0 -252.5 -111t-105.5 -261z" />
<glyph unicode="&#xd6;" d="M0 709q0 -209 103 -386t280 -280.5t385 -103.5q209 0 386.5 103.5t280.5 280.5t103 386q0 156 -61 300.5t-164 250t-245.5 168.5t-299.5 63q-156 0 -298.5 -63t-245 -168.5t-163.5 -250t-61 -300.5zM410 709q0 150 105.5 261t252.5 111q148 0 254 -111t106 -261 q0 -149 -105.5 -255t-254.5 -106q-148 0 -253 106t-105 255zM465 1677q0 54 37.5 91.5t91.5 37.5t91.5 -37.5t37.5 -91.5t-37.5 -91.5t-91.5 -37.5t-91.5 37.5t-37.5 91.5zM813 1677q0 54 38.5 91.5t92.5 37.5q53 0 91 -37.5t38 -91.5t-38 -91.5t-91 -37.5q-54 0 -92.5 37.5 t-38.5 91.5z" />
<glyph unicode="&#xd9;" horiz-adv-x="1146" d="M0 440v1004h410v-1004q0 -38 27 -65t65 -27t65 27t27 65v1004h410v-1004q0 -136 -67.5 -251.5t-183 -182.5t-251.5 -67t-251.5 67t-183 182.5t-67.5 251.5zM190 1880q3 10 9.5 26.5t41.5 62.5t85 85q49 37 93.5 59.5t64.5 26.5l20 4l325 -659z" />
<glyph unicode="&#xda;" horiz-adv-x="1146" d="M0 440q0 -136 67.5 -251.5t183 -182.5t251.5 -67t251.5 67t183 182.5t67.5 251.5v1004h-410v-1004q0 -38 -27 -65t-65 -27t-65 27t-27 65v1004h-410v-1004zM254 1587l326 660q8 -1 22 -4t60.5 -26t95.5 -60q50 -39 84 -83t42 -68l9 -24z" />
<glyph unicode="&#xdb;" horiz-adv-x="1146" d="M0 440v1004h410v-1004q0 -38 27 -65t65 -27t65 27t27 65v1004h410v-1004q0 -136 -67.5 -251.5t-183 -182.5t-251.5 -67t-251.5 67t-183 182.5t-67.5 251.5zM221 1690q19 23 43 47.5t63 58.5t85 55t88 21q43 0 89.5 -21.5t84.5 -54.5t62.5 -58.5t41.5 -47.5l-127 -103 q-37 46 -83.5 83.5t-67.5 37.5q-20 0 -66.5 -37.5t-85.5 -83.5z" />
<glyph unicode="&#xdc;" horiz-adv-x="1146" d="M0 440q0 -136 67.5 -251.5t183 -182.5t251.5 -67t251.5 67t183 182.5t67.5 251.5v1004h-410v-1004q0 -38 -27 -65t-65 -27t-65 27t-27 65v1004h-410v-1004zM201 1677q0 54 37.5 91.5t91.5 37.5t91.5 -37.5t37.5 -91.5t-37.5 -91.5t-91.5 -37.5t-91.5 37.5t-37.5 91.5z M549 1677q0 54 38.5 91.5t92.5 37.5q53 0 91 -37.5t38 -91.5t-38 -91.5t-91 -37.5q-54 0 -92.5 37.5t-38.5 91.5z" />
<glyph unicode="&#xdd;" horiz-adv-x="1394" d="M0 1444l451 4l190 -397l162 397l448 -4l-413 -832v-612h-398v612zM367 1587l325 660q8 -1 22 -4t60.5 -26t95.5 -60q50 -39 84 -83t43 -68l9 -24z" />
<glyph unicode="&#xe0;" horiz-adv-x="1239" d="M0 233v359h127q55 312 176 512q238 388 793 340v-1444h-344v233h-297q-2 -178 2 -233h-365q-5 125 0 233h-92zM371 1880q1 4 3 10t12 25.5t23.5 39.5t39 47t57.5 52q49 37 93.5 59.5t64.5 26.5l20 4l326 -659zM475 592h277v418q-111 -59 -181 -174q-25 -42 -44 -103 t-25 -101l-6 -40h-21z" />
<glyph unicode="&#xe1;" horiz-adv-x="1243" d="M0 233v359h127q55 312 176 512q238 388 793 340v-1444h-344v233h-297q-2 -178 2 -233h-365q-5 125 0 233h-92zM461 1587l325 660q8 -1 22 -4t61 -26t96 -60q50 -39 84 -83t43 -68l8 -24zM475 592h277v418q-111 -59 -181 -174q-25 -42 -44 -103t-25 -101l-6 -40h-21z" />
<glyph unicode="&#xe2;" horiz-adv-x="1239" d="M0 233v359h127q55 312 176 512q238 388 793 340v-1444h-344v233h-297q-2 -178 2 -233h-365q-5 125 0 233h-92zM475 592h277v418q-111 -59 -181 -174q-25 -42 -44 -103t-25 -101l-6 -40h-21zM535 1690q19 24 42.5 48t62.5 58t85 55t88 21q43 0 89.5 -21.5t85 -54.5 t63 -58.5t41.5 -47.5l-127 -103q-37 46 -83.5 83.5t-68.5 37.5q-20 0 -66 -37t-85 -84z" />
<glyph unicode="&#xe3;" horiz-adv-x="1243" d="M0 233v359h127q55 312 176 512q238 388 793 340v-1444h-344v233h-297q-2 -178 2 -233h-365q-5 125 0 233h-92zM344 1638q0 35 12.5 70t38.5 68t73 54t107 21q43 0 82.5 -16.5t59.5 -32t51 -43.5q37 -33 58 -46t48 -13q30 0 46 20t16 49h164q0 -37 -12.5 -75.5t-37.5 -75 t-71 -59.5t-105 -23q-48 0 -93.5 18.5t-68 36t-55.5 47.5q-24 22 -33.5 29.5t-22.5 14t-26 6.5q-65 0 -67 -52v2h-164zM475 592h277v418q-111 -59 -181 -174q-25 -42 -44 -103t-25 -101l-6 -40h-21z" />
<glyph unicode="&#xe4;" horiz-adv-x="1239" d="M0 233v359h127q55 312 176 512q238 388 793 340v-1444h-344v233h-297q-2 -178 2 -233h-365q-5 125 0 233h-92zM475 592h277v418q-111 -59 -181 -174q-25 -42 -44 -103t-25 -101l-6 -40h-21zM487 1677q0 54 37.5 91.5t91.5 37.5t91.5 -37.5t37.5 -91.5t-37.5 -91.5 t-91.5 -37.5t-91.5 37.5t-37.5 91.5zM836 1677q0 54 38.5 91.5t92.5 37.5q53 0 91 -37.5t38 -91.5t-38 -91.5t-91 -37.5q-54 0 -92.5 37.5t-38.5 91.5z" />
<glyph unicode="&#xe5;" horiz-adv-x="1239" d="M0 233v359h127q55 312 176 512q238 388 793 340v-1444h-344v233h-297q-2 -178 2 -233h-365q-5 125 0 233h-92zM475 592h277v418q-111 -59 -181 -174q-25 -42 -44 -103t-25 -101l-6 -40h-21zM569 1698q0 85 60 145t145 60t145 -60t60 -145t-60 -145t-145 -60t-145 60 t-60 145zM643 1696q0 -54 38.5 -92.5t92.5 -38.5t92.5 38.5t38.5 92.5t-38.5 92.5t-92.5 38.5t-92.5 -38.5t-38.5 -92.5z" />
<glyph unicode="&#xe6;" horiz-adv-x="1687" d="M0 233v359h127q55 312 176 512q238 388 793 340h448v-422h-383v-98h383v-410h-383v-104h383v-410h-792v233h-297q-2 -178 2 -233h-365q-5 125 0 233h-92zM496 592h256v418q-111 -59 -181 -174q-25 -42 -44 -103t-25 -101z" />
<glyph unicode="&#xe7;" horiz-adv-x="1564" d="M0 723q0 139 48.5 274t137.5 240q103 123 244.5 188.5t302.5 65.5q89 0 175 -19t151.5 -48t127.5 -67.5t102.5 -72.5t75.5 -69.5t48 -51.5t19 -24l-330 -242l2 -2q-6 9 -19 23t-49.5 45t-76.5 55.5t-101.5 43.5t-124.5 19q-80 0 -144 -34.5t-101.5 -89t-57.5 -115 t-20 -119.5q0 -61 23.5 -125.5t66 -121t111 -92.5t149.5 -36q63 0 120 17.5t92.5 38.5t66.5 49.5t40 40.5l15 20l-2 -2l350 -213q-34 -57 -91.5 -114.5t-141.5 -115t-202 -94t-247 -36.5q-163 0 -308.5 68t-254.5 194q-94 109 -145.5 245.5t-51.5 276.5zM492 -432 q73 209 145 420l53 -19l-53 -155q66 8 110 10t108 -1.5t118.5 -25.5t99.5 -61l-311 -488l96 324q-57 31 -154.5 29.5t-211.5 -33.5z" />
<glyph unicode="&#xe8;" horiz-adv-x="935" d="M0 0v1444h793v-422h-383v-98h383v-410h-383v-104h383v-410h-793zM94 1880q1 4 3 10t12 25.5t23.5 39.5t39 47t57.5 52q49 37 94 59.5t65 26.5l20 4l325 -659z" />
<glyph unicode="&#xe9;" horiz-adv-x="935" d="M0 0v1444h793v-422h-383v-98h383v-410h-383v-104h383v-410h-793zM147 1587l326 660q8 -1 22 -4t60.5 -26t95.5 -60q50 -39 84 -83t43 -68l8 -24z" />
<glyph unicode="&#xea;" horiz-adv-x="935" d="M0 0v1444h793v-422h-383v-98h383v-410h-383v-104h383v-410h-793zM131 1690q19 23 43 47.5t63 58.5t85 55t88 21q43 0 89.5 -21.5t84.5 -54.5t62.5 -58.5t41.5 -47.5l-127 -103q-37 46 -83.5 83.5t-67.5 37.5q-20 0 -66.5 -37.5t-85.5 -83.5z" />
<glyph unicode="&#xeb;" horiz-adv-x="935" d="M0 0v1444h793v-422h-383v-98h383v-410h-383v-104h383v-410h-793zM96 1677q0 54 37.5 91.5t91.5 37.5t91.5 -37.5t37.5 -91.5t-37.5 -91.5t-91.5 -37.5t-91.5 37.5t-37.5 91.5zM444 1677q0 54 38.5 91.5t92.5 37.5q53 0 91.5 -37.5t38.5 -91.5t-38.5 -91.5t-91.5 -37.5 q-54 0 -92.5 37.5t-38.5 91.5z" />
<glyph unicode="&#xec;" horiz-adv-x="782" d="M0 1880q1 4 3 10t12 25.5t23.5 39.5t39 47t57.5 52q49 37 93.5 59.5t64.5 26.5l20 4l326 -659zM219 0v1444h410v-1444h-410z" />
<glyph unicode="&#xed;" horiz-adv-x="577" d="M0 0v1444h410v-1444h-410zM0 1587l326 660q8 -1 22 -4t60.5 -26t95.5 -60q50 -39 84 -83t42 -68l9 -24z" />
<glyph unicode="&#xee;" horiz-adv-x="628" d="M0 1690q19 23 43 47.5t63 58.5t85 55t88 21q43 0 89.5 -21.5t84.5 -54.5t62.5 -58.5t41.5 -47.5l-127 -103q-37 46 -83.5 83.5t-67.5 37.5q-20 0 -66.5 -37.5t-85.5 -83.5zM61 0v1444h410v-1444h-410z" />
<glyph unicode="&#xef;" horiz-adv-x="659" d="M0 1677q0 54 37.5 91.5t91.5 37.5t91.5 -37.5t37.5 -91.5t-37.5 -91.5t-91.5 -37.5t-91.5 37.5t-37.5 91.5zM94 0v1444h410v-1444h-410zM348 1677q0 54 38.5 91.5t92.5 37.5q53 0 91 -37.5t38 -91.5t-38 -91.5t-91 -37.5q-54 0 -92.5 37.5t-38.5 91.5z" />
<glyph unicode="&#xf1;" horiz-adv-x="1302" d="M0 0v1485l750 -625v584h409v-1495l-749 647v-596h-410zM211 1638q0 35 12.5 70t38.5 68t73 54t107 21q43 0 82.5 -16.5t59.5 -32t51 -43.5q37 -33 58 -46t48 -13q30 0 46 20t16 49h164q0 -37 -12.5 -75.5t-37.5 -75t-71 -59.5t-105 -23q-48 0 -93.5 18.5t-68 36 t-55.5 47.5q-24 22 -33.5 29.5t-22.5 14t-26 6.5q-65 0 -67 -52v2h-164z" />
<glyph unicode="&#xf2;" d="M0 709q0 156 61 300.5t163.5 250t245 168.5t298.5 63q157 0 299.5 -63t245.5 -168.5t164 -250t61 -300.5q0 -209 -103 -386t-280.5 -280.5t-386.5 -103.5q-208 0 -385 103.5t-280 280.5t-103 386zM410 709q0 -149 105 -255t253 -106q149 0 254.5 106t105.5 255 q0 150 -106 261t-254 111q-147 0 -252.5 -111t-105.5 -261zM428 1880q1 4 3 10t12 25.5t23.5 39.5t39 47t57.5 52q49 37 93.5 59.5t64.5 26.5l20 4l326 -659z" />
<glyph unicode="&#xf3;" d="M0 709q0 -209 103 -386t280 -280.5t385 -103.5q209 0 386.5 103.5t280.5 280.5t103 386q0 156 -61 300.5t-164 250t-245.5 168.5t-299.5 63q-156 0 -298.5 -63t-245 -168.5t-163.5 -250t-61 -300.5zM410 709q0 150 105.5 261t252.5 111q148 0 254 -111t106 -261 q0 -149 -105.5 -255t-254.5 -106q-148 0 -253 106t-105 255zM510 1587l326 660q8 -1 22 -4t60.5 -26t95.5 -60q50 -39 84 -83t42 -68l9 -24z" />
<glyph unicode="&#xf4;" d="M0 709q0 156 61 300.5t163.5 250t245 168.5t298.5 63q157 0 299.5 -63t245.5 -168.5t164 -250t61 -300.5q0 -209 -103 -386t-280.5 -280.5t-386.5 -103.5q-208 0 -385 103.5t-280 280.5t-103 386zM391 1645q0 35 13 70t39 68t73 54t107 21q43 0 82.5 -17t58.5 -31.5 t51 -44.5q36 -33 58 -46t49 -13q30 0 45.5 20.5t15.5 49.5h164q0 -37 -12.5 -75.5t-37.5 -75.5t-70.5 -60t-104.5 -23q-48 0 -93.5 19t-68 36.5t-55.5 47.5t-48 39.5t-34 9.5q-66 0 -68 -52v3h-164zM410 709q0 -149 105 -255t253 -106q149 0 254.5 106t105.5 255 q0 150 -106 261t-254 111q-147 0 -252.5 -111t-105.5 -261z" />
<glyph unicode="&#xf5;" d="M0 709q0 156 61 300.5t163.5 250t245 168.5t298.5 63q157 0 299.5 -63t245.5 -168.5t164 -250t61 -300.5q0 -209 -103 -386t-280.5 -280.5t-386.5 -103.5q-208 0 -385 103.5t-280 280.5t-103 386zM391 1645q0 35 13 70t39 68t73 54t107 21q43 0 82.5 -17t58.5 -31.5 t51 -44.5q36 -33 58 -46t49 -13q30 0 45.5 20.5t15.5 49.5h164q0 -37 -12.5 -75.5t-37.5 -75.5t-70.5 -60t-104.5 -23q-48 0 -93.5 19t-68 36.5t-55.5 47.5t-48 39.5t-34 9.5q-66 0 -68 -52v3h-164zM410 709q0 -149 105 -255t253 -106q149 0 254.5 106t105.5 255 q0 150 -106 261t-254 111q-147 0 -252.5 -111t-105.5 -261z" />
<glyph unicode="&#xf6;" d="M0 709q0 -209 103 -386t280 -280.5t385 -103.5q209 0 386.5 103.5t280.5 280.5t103 386q0 156 -61 300.5t-164 250t-245.5 168.5t-299.5 63q-156 0 -298.5 -63t-245 -168.5t-163.5 -250t-61 -300.5zM410 709q0 150 105.5 261t252.5 111q148 0 254 -111t106 -261 q0 -149 -105.5 -255t-254.5 -106q-148 0 -253 106t-105 255zM465 1677q0 54 37.5 91.5t91.5 37.5t91.5 -37.5t37.5 -91.5t-37.5 -91.5t-91.5 -37.5t-91.5 37.5t-37.5 91.5zM813 1677q0 54 38.5 91.5t92.5 37.5q53 0 91 -37.5t38 -91.5t-38 -91.5t-91 -37.5q-54 0 -92.5 37.5 t-38.5 91.5z" />
<glyph unicode="&#xf9;" horiz-adv-x="1146" d="M0 440v1004h410v-1004q0 -38 27 -65t65 -27t65 27t27 65v1004h410v-1004q0 -136 -67.5 -251.5t-183 -182.5t-251.5 -67t-251.5 67t-183 182.5t-67.5 251.5zM174 1962q1 4 3 10t12 25.5t23.5 39.5t39 47t57.5 52q49 37 93.5 59.5t64.5 26.5l20 4l326 -659z" />
<glyph unicode="&#xfa;" horiz-adv-x="1146" d="M0 440q0 -136 67.5 -251.5t183 -182.5t251.5 -67t251.5 67t183 182.5t67.5 251.5v1004h-410v-1004q0 -38 -27 -65t-65 -27t-65 27t-27 65v1004h-410v-1004zM254 1587l326 660q8 -1 22 -4t60.5 -26t95.5 -60q50 -39 84 -83t42 -68l9 -24z" />
<glyph unicode="&#xfb;" horiz-adv-x="1146" d="M0 440v1004h410v-1004q0 -38 27 -65t65 -27t65 27t27 65v1004h410v-1004q0 -136 -67.5 -251.5t-183 -182.5t-251.5 -67t-251.5 67t-183 182.5t-67.5 251.5zM221 1690q19 23 43 47.5t63 58.5t85 55t88 21q43 0 89.5 -21.5t84.5 -54.5t62.5 -58.5t41.5 -47.5l-127 -103 q-37 46 -83.5 83.5t-67.5 37.5q-20 0 -66.5 -37.5t-85.5 -83.5z" />
<glyph unicode="&#xfc;" horiz-adv-x="1146" d="M0 440q0 -136 67.5 -251.5t183 -182.5t251.5 -67t251.5 67t183 182.5t67.5 251.5v1004h-410v-1004q0 -38 -27 -65t-65 -27t-65 27t-27 65v1004h-410v-1004zM201 1677q0 54 37.5 91.5t91.5 37.5t91.5 -37.5t37.5 -91.5t-37.5 -91.5t-91.5 -37.5t-91.5 37.5t-37.5 91.5z M549 1677q0 54 38.5 91.5t92.5 37.5q53 0 91 -37.5t38 -91.5t-38 -91.5t-91 -37.5q-54 0 -92.5 37.5t-38.5 91.5z" />
<glyph unicode="&#xfd;" horiz-adv-x="1495" d="M0 1444h451l225 -416l225 416h451l-709 -1444h-461l285 569zM356 1587l326 660q8 -1 22 -4t60.5 -26t95.5 -60q50 -39 84 -83t42 -68l9 -24z" />
<glyph unicode="&#xff;" horiz-adv-x="1495" d="M0 1444h451l225 -416l225 416h451l-709 -1444h-461l285 569zM383 1677q0 54 37.5 91.5t91.5 37.5t91.5 -37.5t37.5 -91.5t-37.5 -91.5t-91.5 -37.5t-91.5 37.5t-37.5 91.5zM731 1677q0 54 38.5 91.5t92.5 37.5q53 0 91 -37.5t38 -91.5t-38 -91.5t-91 -37.5 q-54 0 -92.5 37.5t-38.5 91.5z" />
<glyph unicode="&#x178;" horiz-adv-x="1394" d="M0 1444l451 4l190 -397l162 397l448 -4l-413 -832v-612h-398v612zM338 1724q0 54 37.5 91.5t91.5 37.5t91.5 -37.5t37.5 -91.5t-37.5 -91.5t-91.5 -37.5t-91.5 37.5t-37.5 91.5zM686 1724q0 54 38.5 91.5t92.5 37.5q53 0 91 -37.5t38 -91.5t-38 -91.5t-91 -37.5 q-54 0 -92.5 37.5t-38.5 91.5z" />
<glyph unicode="&#x2c6;" horiz-adv-x="700" d="M0 1264q19 23 43 47.5t63 58.5t85 55t88 21q43 0 89.5 -21.5t84.5 -54.5t62.5 -58.5t41.5 -47.5l-127 -103q-37 46 -83.5 83.5t-67.5 37.5q-20 0 -66.5 -37.5t-85.5 -83.5z" />
<glyph unicode="&#x2dc;" horiz-adv-x="899" d="M0 881q0 35 12.5 70t38.5 68t73 54t107 21q43 0 83 -17t59 -32t51 -44q37 -33 58 -46t48 -13q30 0 46 20.5t16 49.5h164q0 -29 -7.5 -59.5t-24.5 -62.5t-42.5 -56.5t-64.5 -40t-87 -15.5t-93.5 19t-68 36.5t-55.5 47.5t-48 39.5t-34 9.5q-65 0 -67 -51v2h-164z" />
<glyph unicode="&#x2000;" horiz-adv-x="1129" />
<glyph unicode="&#x2001;" horiz-adv-x="2259" />
<glyph unicode="&#x2002;" horiz-adv-x="1129" />
<glyph unicode="&#x2003;" horiz-adv-x="2259" />
<glyph unicode="&#x2004;" horiz-adv-x="753" />
<glyph unicode="&#x2005;" horiz-adv-x="564" />
<glyph unicode="&#x2006;" horiz-adv-x="376" />
<glyph unicode="&#x2007;" horiz-adv-x="376" />
<glyph unicode="&#x2008;" horiz-adv-x="282" />
<glyph unicode="&#x2009;" horiz-adv-x="451" />
<glyph unicode="&#x200a;" horiz-adv-x="125" />
<glyph unicode="&#x2010;" horiz-adv-x="962" d="M0 512v410h819v-410h-819z" />
<glyph unicode="&#x2011;" horiz-adv-x="962" d="M0 512v410h819v-410h-819z" />
<glyph unicode="&#x2012;" horiz-adv-x="962" d="M0 512v410h819v-410h-819z" />
<glyph unicode="&#x2013;" horiz-adv-x="1167" d="M0 512v410h1024v-410h-1024z" />
<glyph unicode="&#x2014;" horiz-adv-x="2191" d="M0 512v410h2048v-410h-2048z" />
<glyph unicode="&#x2018;" horiz-adv-x="540" d="M0 1622l395 635l2 -733q-7 -3 -21.5 -6t-66 -3t-112.5 13q-61 12 -110 35.5t-68 40.5z" />
<glyph unicode="&#x2019;" horiz-adv-x="532" d="M0 2075q5 6 15 16t54.5 37t102.5 49t112.5 28t79.5 1l25 -4v-750z" />
<glyph unicode="&#x201c;" horiz-adv-x="1081" d="M0 1622l395 635l2 -733q-7 -3 -21.5 -6t-66 -3t-112.5 13q-61 12 -110 35.5t-68 40.5zM541 1622l397 637v-735q-7 -3 -21.5 -6t-66.5 -2.5t-113 12.5q-61 13 -110 36.5t-67 40.5z" />
<glyph unicode="&#x201d;" horiz-adv-x="921" d="M0 2075q5 6 15 16t54.5 37t102.5 49t112.5 28t79.5 1l25 -4v-750zM532 2075q5 6 15.5 16t55 37t102.5 49t112.5 28t79.5 1l25 -4v-750z" />
<glyph unicode="&#x2022;" horiz-adv-x="552" d="M0 721q0 85 60 145t145 60t145 -60t60 -145t-60 -145t-145 -60t-145 60t-60 145z" />
<glyph unicode="&#x202f;" horiz-adv-x="451" />
<glyph unicode="&#x205f;" horiz-adv-x="564" />
<glyph unicode="&#xe000;" horiz-adv-x="1443" d="M0 0v1444h1444v-1444h-1444z" />
</font>
</defs>
</svg>
